<svg xmlns="http://www.w3.org/2000/svg" width="50" height="50" viewBox="0 0 50 50"><defs><style>.a{fill:#8fa49c;}.b{fill:#fff;fill-rule:evenodd;}</style></defs><g transform="translate(-342 -225)"><circle class="a" cx="25" cy="25" r="25" transform="translate(342 225)"/><g transform="translate(354.695 237.695)"><path class="b" d="M39.582,49.019a10.388,10.388,0,0,1-5.736-1.665l-3.886,1.3,1.3-3.7a10.693,10.693,0,0,1-1.85-5.921V38.1a10.214,10.214,0,0,1,20.354.185v.74A10.109,10.109,0,0,1,39.582,49.019ZM51.609,38.657A12.05,12.05,0,0,0,39.582,27,12.183,12.183,0,0,0,27.37,38.472v.555a11.314,11.314,0,0,0,1.85,6.106L27,51.609l6.661-2.035a12.206,12.206,0,0,0,5.921,1.48A12,12,0,0,0,51.609,39.027Z" transform="translate(-27 -27)"/><path class="b" d="M74.472,69.956a18.026,18.026,0,0,0-2.035-.925c-.37-.185-.555-.185-.74.185-.185.185-.74.925-.925,1.11a.347.347,0,0,1-.555,0,6.153,6.153,0,0,1-2.405-1.48,6.565,6.565,0,0,1-1.665-2.035c-.185-.185,0-.37,0-.555L66.7,65.7v-.185a.181.181,0,0,0,.185-.185c.185-.37.185-.37,0-.555a9.5,9.5,0,0,0-.925-2.22C65.775,62,65.59,62,65.405,62H64.85a3.127,3.127,0,0,0-.925.37A4.255,4.255,0,0,0,63,64.775a2.347,2.347,0,0,0,.185,1.11,11.355,11.355,0,0,0,.925,2.035c.185.185,2.035,3.331,5.181,4.441,2.961,1.11,2.961.74,3.516.74a2.736,2.736,0,0,0,2.035-1.48,4.882,4.882,0,0,0,.185-1.3C74.842,70.141,74.657,70.141,74.472,69.956Z" transform="translate(-56.339 -55.524)"/></g></g></svg>