<svg xmlns="http://www.w3.org/2000/svg" width="50" height="50" viewBox="0 0 50 50"><defs><style>.a{fill:#8fa49c;}.b{fill:#fff;}</style></defs><g transform="translate(-342 -282)"><circle class="a" cx="25" cy="25" r="25" transform="translate(342 282)"/><g transform="translate(356.258 295.494)"><g transform="translate(0 1.478)"><path class="b" d="M13.226,20.7a.547.547,0,0,1-.745.149,28.241,28.241,0,0,1-5.957-5.957.506.506,0,0,1,.149-.745c.645-.447,1.241-.894,1.887-1.34-.669-.931-1.914-3.156-1.914-3.156S5.695,7.611,5.283,6.4c-.943.3-1.837.6-2.73.894A3.075,3.075,0,0,0,.864,11.613,31.231,31.231,0,0,0,15.708,26.457a3.075,3.075,0,0,0,4.319-1.688c.3-.894.645-1.787.943-2.681a25.178,25.178,0,0,1-6.4-3.277C14.119,19.457,13.673,20.052,13.226,20.7Z" transform="translate(-0.533 -6.4)"/></g><g transform="translate(13.119 0)"><path class="b" d="M29.924,18.148a.455.455,0,0,0,.457.457.942.942,0,0,1,.941.941.457.457,0,1,0,.913,0,1.856,1.856,0,0,0-1.854-1.854A.458.458,0,0,0,29.924,18.148ZM37.36,20a.455.455,0,0,0,.457-.457,7.442,7.442,0,0,0-7.435-7.435.457.457,0,1,0,0,.913A6.529,6.529,0,0,1,36.9,19.545.458.458,0,0,0,37.36,20Z" transform="translate(-29.924 -12.11)"/><path class="b" d="M34.112,22.865a.457.457,0,0,0,.913,0,4.649,4.649,0,0,0-4.645-4.645.457.457,0,1,0,0,.913A3.736,3.736,0,0,1,34.112,22.865Z" transform="translate(-29.924 -15.429)"/></g></g></g></svg>