<svg xmlns="http://www.w3.org/2000/svg" width="110" height="128.552" viewBox="0 0 110 128.552"><defs><style>.a{fill:#f4f2ed;}</style></defs><g transform="translate(-1569.025 -224.317)"><path class="a" d="M1604.56,232.448l-3.661,5.488a49.58,49.58,0,0,0-5.021-3.657,30.534,30.534,0,0,0-2.955,4.924q-1.831-1.637-5.865-4.548a37.009,37.009,0,0,0,3.377-5.258q1.693,1.317,5.162,3.754a32.7,32.7,0,0,0,3.1-4.736Z" transform="translate(57.346 13.03)"/><path class="a" d="M1581.362,257l-3.544,5.449-5.714-4.076,3.9-5.626Z" transform="translate(9.786 90.417)"/><g transform="translate(1569.025 224.317)"><path class="a" d="M1573.311,228.6h101.414v45.027l4.285-6.184V224.317H1569.025v49.309l4.285-6.184Z" transform="translate(-1569.025 -224.317)"/><path class="a" d="M1674.725,283.556H1573.311v-45.88l-4.285,6.588v43.577H1679.01V237.68l-4.285,6.588Z" transform="translate(-1569.025 -181.834)"/><path class="a" d="M1595.338,237.669v.034l.015-.023Z" transform="translate(-1485.353 -181.857)"/><path class="a" d="M1570.051,237.669v.028l.013-.019Z" transform="translate(-1565.765 -181.856)"/></g><g transform="translate(1579.03 295.82)"><path class="a" d="M1572.53,243.576a3.09,3.09,0,0,0-.568.581,4.056,4.056,0,0,1,.6.564,3.865,3.865,0,0,0,.556-.556A2.2,2.2,0,0,0,1572.53,243.576Z" transform="translate(-1569.692 -234.577)"/><path class="a" d="M1576.94,242.584l-.476.573a2.929,2.929,0,0,1,.757,1.371,7.68,7.68,0,0,1-3.073.652c-1.421,0-2.232-.422-2.232-1.333a4.1,4.1,0,0,1,.23-1.041c0-.038-.013-.054-.088-.088l-.159-.071a3,3,0,0,0-.481,1.547c0,1.191.945,1.835,2.579,1.835a8.2,8.2,0,0,0,3.3-.752,1.908,1.908,0,0,0,.259-1.024,2.975,2.975,0,0,0-.488-1.668C1577.037,242.53,1576.983,242.53,1576.94,242.584Z" transform="translate(-1571.419 -237.861)"/><path class="a" d="M1573.825,242.111c0-.1-.079-.142-.159-.079l-.547.435c.033,1.066.063,1.772.1,2.675l.088,2.541c.008.167.117.176.221.008a8.5,8.5,0,0,0,.285-3.081C1573.817,243.569,1573.825,242.738,1573.825,242.111Z" transform="translate(-1566.013 -239.586)"/><path class="a" d="M1575.687,242.039a3.4,3.4,0,0,0-.547.577,2.445,2.445,0,0,0-.59-.585,3.159,3.159,0,0,0-.568.585,4.259,4.259,0,0,1,.6.564,4.126,4.126,0,0,0,.556-.556,3.923,3.923,0,0,1,.584.564,3.492,3.492,0,0,0,.556-.556A2.116,2.116,0,0,0,1575.687,242.039Z" transform="translate(-1563.272 -239.49)"/><path class="a" d="M1577.967,242.584l-.459.573a2.681,2.681,0,0,1,.769,1.547,2.6,2.6,0,0,1-1.517.443h0c-.673,0-1.116-.38-1.6-1.246-.05-.1-.13-.088-.176,0l-.309.619a4.13,4.13,0,0,0,.7.9.7.7,0,0,1,.033.213c0,.7-.924,1.476-2.09,1.81-.109.025-.134.125-.029.167a2.1,2.1,0,0,0,.832.167c.97,0,1.588-.794,1.605-2.082a1.919,1.919,0,0,0,1.036.3v0a2.4,2.4,0,0,0,1.547-.489,2.314,2.314,0,0,0,.351-1.225,3.017,3.017,0,0,0-.556-1.7C1578.068,242.53,1578.013,242.53,1577.967,242.584Z" transform="translate(-1565.695 -237.861)"/><path class="a" d="M1576.427,242.51a3.7,3.7,0,0,0-.7.192.88.88,0,0,1-.706-.452.889.889,0,0,1,.672-.343.457.457,0,0,1,.334.134l.247-.38c.03-.046.02-.063-.033-.109a.542.542,0,0,0-.364-.13,1.274,1.274,0,0,0-1.174,1.041.668.668,0,0,0,.4.564c-.3.2-.468.4-.468.46a.119.119,0,0,0,.029.071l.071.117a3.268,3.268,0,0,1,1.6-.673l.167-.422C1576.515,242.535,1576.482,242.5,1576.427,242.51Z" transform="translate(-1561.195 -241.423)"/><path class="a" d="M1575.286,242.031l-.548.435c.034,1.066.063,1.772.1,2.675l.088,2.541c.009.167.117.176.221.008a8.532,8.532,0,0,0,.284-3.081c.009-1.041.017-1.873.017-2.5C1575.444,242.006,1575.365,241.968,1575.286,242.031Z" transform="translate(-1560.864 -239.586)"/></g><g transform="translate(1579.03 308.941)"><path class="a" d="M1577.677,250.523c-.318-.05-.543-.155-.619-.314l-2.274-5.626c-.054-.008-.113-.021-.138-.021-.08,0-.142.05-.192.163l-2.27,5.455c-.075.188-.247.263-.64.343-.088.017-.125.063-.125.167a1.07,1.07,0,0,0,.021.159c.31-.025.556-.046.811-.046.33,0,.723.021,1.091.046a1.431,1.431,0,0,0,.028-.159.132.132,0,0,0-.12-.15c-.389-.059-.556-.15-.556-.284a.458.458,0,0,1,.046-.188l.577-1.471h2.073l.564,1.509a.266.266,0,0,1,.038.142c0,.142-.158.226-.526.293a.15.15,0,0,0-.1.159l.017.15c.351-.025.907-.046,1.276-.046.292,0,.668.021,1.141.046.008-.063.017-.13.017-.159C1577.81,250.585,1577.773,250.531,1577.677,250.523Zm-4.2-2.332.894-2.261.857,2.261Z" transform="translate(-1571.419 -244.562)"/><path class="a" d="M1575.441,249.211a.219.219,0,0,0-.142.059,1,1,0,0,1-.543.226c-.256,0-.406-.1-.406-.9V246.26h.9c.15,0,.2-.113.2-.414h-1.1v-.982h-.18c-.142,0-.268.293-.406.585a.778.778,0,0,1-.719.5c-.1,0-.121.1-.121.18v.129h.564v2.6c0,.895.427,1.091.937,1.091a1.643,1.643,0,0,0,1.174-.6C1575.545,249.249,1575.5,249.211,1575.441,249.211Z" transform="translate(-1566.633 -243.602)"/><path class="a" d="M1579.686,245.185c-.284,0-.539-.008-.8-.029a.392.392,0,0,0-.03.134.121.121,0,0,0,.113.13c.264.059.377.142.377.255a8.9,8.9,0,0,1-.82,2.4l-1.2-2.968a.223.223,0,0,0-.1-.029.131.131,0,0,0-.121.1l-1.125,2.872-.677-1.722a2.894,2.894,0,0,1-.226-.7c0-.1.122-.171.414-.209.084-.008.121-.046.121-.13a.425.425,0,0,0-.029-.134c-.251.021-.5.029-1.045.029-.377,0-.677-.008-.941-.029a.4.4,0,0,0-.029.134.139.139,0,0,0,.121.151c.284.046.351.084.51.46l1.217,2.972c.1.255.167.422.3.422a1.073,1.073,0,0,0,.171-.017l1.091-2.784,1.028,2.47c.113.293.159.33.255.33a.731.731,0,0,0,.159-.017l1.329-3.377c.15-.385.209-.414.519-.468.083-.021.121-.067.121-.134a.625.625,0,0,0-.025-.142A6.677,6.677,0,0,1,1579.686,245.185Z" transform="translate(-1564.617 -242.94)"/><path class="a" d="M1578.076,245.074a1.845,1.845,0,0,0-1.3.757v-.606c0-.084-.029-.138-.134-.138s-.347.075-.618.121a7.114,7.114,0,0,1-.749.046.97.97,0,0,0-.017.142c0,.075.046.113.121.121.464.046.548.209.548.669v2.433c0,.188-.226.276-.548.33a.1.1,0,0,0-.084.113.908.908,0,0,0,.017.159c.314-.025.682-.046,1.058-.046.414,0,1.007.029,1.3.046a.826.826,0,0,0,.021-.159.107.107,0,0,0-.1-.113c-.547-.084-.819-.188-.819-.464v-1.647c0-.631.293-1.066.69-1.066a.636.636,0,0,1,.476.255c.606-.272.681-.347.681-.51C1578.623,245.283,1578.436,245.074,1578.076,245.074Z" transform="translate(-1559.208 -242.934)"/><path class="a" d="M1580.042,248.918a1.659,1.659,0,0,1-.234.038.319.319,0,0,1-.3-.209,1.938,1.938,0,0,1-.083-.706v-1.63c0-.978-.464-1.337-1.464-1.337-.764,0-1.7.623-1.7,1.17,0,.151.021.2.1.2a2.119,2.119,0,0,0,.322-.046c.317-.1.43-.151.467-.276.164-.527.293-.685.69-.685.489,0,.736.355.736,1.016,0,.255-.029.3-.188.351s-.33.084-.519.13c-1.094.238-1.763.66-1.763,1.4,0,.66.547.961,1.262.961a1.313,1.313,0,0,0,1.291-.723.82.82,0,0,0,.866.723,1.315,1.315,0,0,0,.644-.167C1580.159,248.976,1580.13,248.918,1580.042,248.918Zm-1.467-1.1a.98.98,0,0,1-.907,1.066c-.355,0-.593-.272-.593-.715,0-.548.368-.894,1.217-1.028l.284-.046Z" transform="translate(-1556.518 -242.94)"/><path class="a" d="M1580.117,245.072a1.814,1.814,0,0,0-1.48.848c0-.359.021-.539.021-.706,0-.084-.021-.142-.121-.142s-.36.075-.632.113a7.015,7.015,0,0,1-.727.059.963.963,0,0,0-.021.138c0,.075.058.113.134.125.434.046.489.167.489.506v4.874c0,.2-.167.263-.46.33a.1.1,0,0,0-.087.113,1.093,1.093,0,0,0,.02.163c.323-.029.728-.05,1.074-.05.443,0,1.021.029,1.308.05a.624.624,0,0,0,.021-.155.116.116,0,0,0-.1-.13c-.7-.075-.916-.159-.916-.481V249.06a2.869,2.869,0,0,0,1.149.234,2.171,2.171,0,0,0,1.99-2.2C1581.777,245.8,1581,245.072,1580.117,245.072Zm-.368,3.866a1.489,1.489,0,0,1-1.112-.522v-1.655a1.259,1.259,0,0,1,1.037-1.2c.726,0,1.141.8,1.141,1.764C1580.815,248.265,1580.46,248.938,1579.749,248.938Z" transform="translate(-1553.169 -242.94)"/></g></g></svg>