<svg xmlns="http://www.w3.org/2000/svg" width="105" height="105" viewBox="0 0 105 105"><defs><style>.a{fill:#8fa49c;}.b{fill:#fff;}</style></defs><g transform="translate(-1691 -856)"><circle class="a" cx="52.5" cy="52.5" r="52.5" transform="translate(1691 856)"/><g transform="translate(1722.432 884.228)"><g transform="translate(0 3.167)"><path class="b" d="M27.724,37.029a1.171,1.171,0,0,1-1.6.319A60.5,60.5,0,0,1,13.367,24.586a1.084,1.084,0,0,1,.319-1.6c1.383-.957,2.659-1.914,4.041-2.872-1.432-2-4.1-6.76-4.1-6.76S11.591,8.994,10.708,6.4c-2.021.638-3.935,1.276-5.849,1.914a6.588,6.588,0,0,0-3.616,9.253,66.9,66.9,0,0,0,31.8,31.8,6.588,6.588,0,0,0,9.253-3.616c.638-1.914,1.383-3.829,2.021-5.743A53.937,53.937,0,0,1,30.6,32.988C29.638,34.371,28.681,35.647,27.724,37.029Z" transform="translate(-0.533 -6.4)"/></g><g transform="translate(28.104 0)"><path class="b" d="M29.924,25.045a.975.975,0,0,0,.978.978,2.019,2.019,0,0,1,2.016,2.016.978.978,0,0,0,1.957,0A3.975,3.975,0,0,0,30.9,24.066.981.981,0,0,0,29.924,25.045Zm15.929,3.972a.975.975,0,0,0,.978-.978A15.943,15.943,0,0,0,30.9,12.11a.978.978,0,1,0,0,1.957A13.986,13.986,0,0,1,44.875,28.039.981.981,0,0,0,45.853,29.017Z" transform="translate(-29.924 -12.11)"/><path class="b" d="M38.9,28.171a.978.978,0,0,0,1.957,0A9.959,9.959,0,0,0,30.9,18.22a.978.978,0,1,0,0,1.957A8,8,0,0,1,38.9,28.171Z" transform="translate(-29.924 -12.242)"/></g></g></g></svg>