<svg xmlns="http://www.w3.org/2000/svg" width="108" height="108" viewBox="0 0 108 108"><defs><style>.a{fill:#8fa49c;}.b{fill:#fff;fill-rule:evenodd;}</style></defs><g transform="translate(-1691 -734)"><circle class="a" cx="54" cy="54" r="54" transform="translate(1691 734)"/><g transform="translate(1718.51 760.679)"><path class="b" d="M53.954,74.17A22.254,22.254,0,0,1,41.666,70.6l-8.324,2.775,2.775-7.928a22.908,22.908,0,0,1-3.964-12.684V50.783a21.946,21.946,0,0,1,21.8-19.819c11.5,0,20.612,8.72,21.8,20.216v1.586A21.656,21.656,0,0,1,53.954,74.17Zm25.765-22.2A25.814,25.814,0,0,0,53.954,27,26.1,26.1,0,0,0,27.793,51.576v1.189a24.237,24.237,0,0,0,3.964,13.081L27,79.719l14.27-4.36A26.148,26.148,0,0,0,53.954,78.53,25.714,25.714,0,0,0,79.719,52.765Z" transform="translate(-27 -27)"/><path class="b" d="M87.576,79.044a38.612,38.612,0,0,0-4.36-1.982c-.793-.4-1.189-.4-1.586.4-.4.4-1.586,1.982-1.982,2.378a.743.743,0,0,1-1.189,0,13.181,13.181,0,0,1-5.153-3.171,14.063,14.063,0,0,1-3.567-4.36c-.4-.4,0-.793,0-1.189l1.189-1.189v-.4a.388.388,0,0,0,.4-.4c.4-.793.4-.793,0-1.189a20.344,20.344,0,0,0-1.982-4.757C68.946,62,68.549,62,68.153,62H66.964a6.7,6.7,0,0,0-1.982.793c-.4.793-1.982,2.378-1.982,5.153a5.028,5.028,0,0,0,.4,2.378c.4,1.982,1.982,3.964,1.982,4.36.4.4,4.36,7.135,11.1,9.513,6.342,2.378,6.342,1.586,7.531,1.586s3.964-1.586,4.36-3.171a10.459,10.459,0,0,0,.4-2.775C88.369,79.441,87.972,79.441,87.576,79.044Z" transform="translate(-48.73 -48.127)"/></g></g></svg>